# xmcd
#
# Track frame offsets:
#       150
#       16712
#       37703
#       58091
#       82205
#       101163
#       125099
#       156366
#       179938
#       220662
#
# Disc length: 3111 seconds
#
# Revision: 0
# Processed by: cddbd v1.4PL0 Copyright (c) Steve Scherf et al.
# Submitted via: WhereIsIt 3.26
#
DISCID=8b0c250a
DTITLE=Popa Chubby - How'd a White Boy Get the Blues ?
DYEAR=1900
DGENRE=
TTITLE0=Daddy Played the Guitar And Mama Was a Disco Queen
TTITLE1=Black Hearted Woman
TTITLE2=Carrying On the Torch of the Blues
TTITLE3=Time is Killing Me
TTITLE4=Savin' My Love Up For My Lover
TTITLE5=No Comfort
TTITLE6=It's a Sad Day In New York City When There Ain't No Room for the Blues
TTITLE7=Goin'g Down to Willie's
TTITLE8=Since I Lost My Leg
TTITLE9=How'd a White Boy Get the Blues
EXTD=
EXTT0=
EXTT1=
EXTT2=
EXTT3=
EXTT4=
EXTT5=
EXTT6=
EXTT7=
EXTT8=
EXTT9=
PLAYORDER=
